<?xml version="1.0" encoding="UTF-8" standalone="no"?>
<svg
   xmlns:dc="http://purl.org/dc/elements/1.1/"
   xmlns:cc="http://creativecommons.org/ns#"
   xmlns:rdf="http://www.w3.org/1999/02/22-rdf-syntax-ns#"
   xmlns:svg="http://www.w3.org/2000/svg"
   xmlns="http://www.w3.org/2000/svg"
   xmlns:sodipodi="http://sodipodi.sourceforge.net/DTD/sodipodi-0.dtd"
   xmlns:inkscape="http://www.inkscape.org/namespaces/inkscape"
   width="269.23019"
   height="269.23019"
   viewBox="0 0 269.23019 269.2302"
   version="1.1"
   id="svg885"
   sodipodi:docname="tmate.svg"
   inkscape:version="0.92.5 (2060ec1f9f, 2020-04-08)"
   inkscape:export-filename="/tmp/icon.png"
   inkscape:export-xdpi="22.82"
   inkscape:export-ydpi="22.82">
  <metadata
     id="metadata889">
    <rdf:RDF>
      <cc:Work
         rdf:about="">
        <dc:format>image/svg+xml</dc:format>
        <dc:type
           rdf:resource="http://purl.org/dc/dcmitype/StillImage" />
        <dc:title>logomark + wordmark</dc:title>
      </cc:Work>
    </rdf:RDF>
  </metadata>
  <sodipodi:namedview
     pagecolor="#ffffff"
     bordercolor="#666666"
     borderopacity="1"
     objecttolerance="10"
     gridtolerance="10"
     guidetolerance="10"
     inkscape:pageopacity="0"
     inkscape:pageshadow="2"
     inkscape:window-width="1880"
     inkscape:window-height="1056"
     id="namedview887"
     showgrid="false"
     inkscape:zoom="2.8609912"
     inkscape:cx="61.261045"
     inkscape:cy="135.52211"
     inkscape:window-x="0"
     inkscape:window-y="0"
     inkscape:window-maximized="1"
     inkscape:current-layer="svg885"
     fit-margin-top="0"
     fit-margin-left="0"
     fit-margin-right="0"
     fit-margin-bottom="0"
     inkscape:pagecheckerboard="true" />
  <!-- Generator: Sketch 3.3.1 (12005) - http://www.bohemiancoding.com/sketch -->
  <title
     id="title872">logomark + wordmark</title>
  <desc
     id="desc874">Created with Sketch.</desc>
  <defs
     id="defs876" />
  <g
     id="g5094"
     transform="translate(29.511434,6.0525985)">
    <path
       inkscape:export-ydpi="213.85001"
       inkscape:export-xdpi="213.85001"
       inkscape:export-filename="/tmp/tmate.png"
       sodipodi:nodetypes="ssccssccssscccsscccssccccsscc"
       inkscape:connector-curvature="0"
       id="path962"
       d="m 146.40682,0 c -19.72827,0 -35.758,16.509021 -35.75802,36.882812 0,2.107634 0.17613,4.04066 0.52843,5.972657 l -13.034202,7.904297 c 1.585303,-4.215268 2.642072,-8.958996 2.642072,-13.701172 0,-20.373792 -16.029731,-36.88281275 -35.758007,-36.88281275 -19.728286,0 -35.755978,16.50902075 -35.755978,36.88281275 -0.975765,9.736501 11.840336,25.46875 7.22165,25.46875 -22.194313,0 -40.3375863,18.792445 -40.3375863,41.800776 v 86.06055 c 0,10.71381 8.4541705,19.32031 18.8467473,19.32031 2.470426,0 4.78588,-0.46544 6.948334,-1.38671 V 243.125 h 0.05264 c 0.536536,7.82586 7.258105,14 15.494055,14 H 172.25656 c 8.22861,0 14.95632,-6.18355 15.49406,-14 h 0.0526 v -34.99609 c 2.28941,1.0533 4.75421,1.58007 7.39575,1.58007 10.39257,0 18.84878,-8.78214 18.84877,-19.32031 v -86.06055 c 0.17614,-12.118894 -4.93354,-23.008333 -12.86007,-30.736323 1.93759,-7.025446 -0.17591,-14.754208 -5.81256,-19.847656 L 181.81255,41.625 c 0.17615,-1.580725 0.35226,-3.161462 0.35226,-4.742188 C 182.16481,16.509021 166.1351,0 146.40682,0 Z m -31.53069,53.919922 c -79.147304,135.470658 -39.573656,67.735328 0,0 z"
       style="fill:#ffffff;stroke:#ffffff;stroke-width:6.55900002;stroke-miterlimit:4;stroke-dasharray:none" />
    <g
       inkscape:export-ydpi="213.85001"
       inkscape:export-xdpi="213.85001"
       inkscape:export-filename="/tmp/tmate.png"
       transform="matrix(1.021354,0,0,0.99392751,-254.5335,2.7656894)"
       id="g844">
      <path
         sodipodi:nodetypes="cccsssccssscssssccsssssccccccsccccsscccccccsccsccsssccssccssssscccccccsssss"
         style="stroke-width:1.72759068"
         id="path834"
         d="m 444.95196,71.119999 c 1.86922,-7.025446 -0.16993,-14.753436 -5.60766,-19.846884 L 426.25976,39.154221 c 0.16993,-1.580725 0.33985,-3.16145 0.33985,-4.742176 0,-20.373792 -15.46355,-36.8835897 -34.49561,-36.8835897 -19.03205,0 -34.4956,16.5097977 -34.4956,36.8835897 0,2.107634 0.16992,4.039632 0.50978,5.971629 l -12.57475,7.903627 c 1.52936,-4.215268 2.54894,-8.957444 2.54894,-13.69962 0,-20.373792 -15.46355,-36.8835897 -34.49561,-36.8835897 -19.03207,0 -34.49562,16.5097977 -34.49562,36.8835897 0,9.835624 3.73845,18.793067 9.51604,25.467241 h -2.54894 c -21.41107,0 -38.91377,18.793067 -38.91377,41.801408 v 86.06171 c 0,10.71381 8.1566,19.31997 18.18242,19.31997 2.54893,0 4.92794,-0.5269 7.13702,-1.58072 v -17.91488 c 0,4.3909 -3.22866,7.90362 -7.13702,7.90362 -3.90838,0 -7.13703,-3.51272 -7.13703,-7.90362 v -86.06172 c 0,-16.685436 12.57476,-30.385055 27.86838,-30.385055 h 42.48227 c 1.01958,0 2.03915,-0.351272 2.8888,-0.878181 l 30.24738,-18.968703 c 2.20908,4.390903 5.09788,8.254899 8.83632,11.416349 l -22.06732,12.963475 v 0 c -0.16993,0.175636 -0.33987,0.351273 -0.50979,0.351273 l -0.33986,0.351272 c -0.16993,0.175636 -0.16993,0.351272 -0.33986,0.351272 -0.16992,0.175636 -0.33985,0.351272 -0.33985,0.526908 -0.16993,0.175637 -0.16993,0.351273 -0.16993,0.351273 -0.16993,0.175636 -0.16993,0.351272 -0.33987,0.526908 0,0.175636 -0.16992,0.351272 -0.16992,0.526908 0,0.175637 -0.16993,0.351273 -0.16993,0.526909 v 0.351272 0.702545 0 15.307831 H 357.292 V 83.907834 l 24.10647,-14.36856 c 3.39858,1.229453 7.13703,1.931997 10.87546,1.931997 3.90837,0 7.64681,-0.702544 11.21532,-2.107633 l 12.2349,11.416349 c 3.22865,2.985814 7.47688,4.742176 11.7251,4.742176 h 1.35944 c 3.73844,-0.351273 7.30695,-1.756362 10.02582,-4.390903 4.58809,5.444716 7.47688,12.645806 7.47688,20.72507 v 86.06171 c 0,4.3909 -3.22866,7.90362 -7.13702,7.90362 -3.90838,0 -7.13703,-3.51272 -7.13703,-7.90362 v 17.73925 c 2.20908,1.05382 4.58809,1.58072 7.13703,1.58072 10.02581,0 18.18242,-8.7818 18.18242,-19.31997 V 101.85633 C 457.52671,89.737426 452.59877,78.847989 444.95196,71.119999 Z M 290.14654,34.587681 c 0,-14.050891 10.5356,-25.4672407 23.45022,-25.4672407 12.91461,0 23.45021,11.2407137 23.45021,25.4672407 0,14.226528 -10.5356,25.467241 -23.45021,25.467241 -12.91462,0 -23.45022,-11.416349 -23.45022,-25.467241 z m 132.71464,37.586135 -9.51604,-8.781807 c 3.90837,-3.337087 7.13702,-7.376719 9.3461,-12.118894 l 9.17617,8.606171 c 3.05873,2.810178 3.39858,8.079262 0.67972,11.416349 -1.1895,1.580725 -3.05872,2.634542 -4.92794,2.634542 -1.52936,0.175636 -3.22865,-0.351272 -4.75801,-1.756361 z M 368.65379,34.587681 c 0,-14.050891 10.5356,-25.4672407 23.45021,-25.4672407 12.91461,0 23.45022,11.4163497 23.45022,25.4672407 0,14.050892 -10.53561,25.467241 -23.45022,25.467241 -12.91461,0 -23.45021,-11.416349 -23.45021,-25.467241 z"
         inkscape:connector-curvature="0" />
      <path
         inkscape:connector-curvature="0"
         id="path836"
         d="m 272.03965,210.65436 h 160 v 28.99613 c 0,8.28641 -6.72197,15.00387 -14.99847,15.00387 H 287.03812 c -8.28342,0 -14.99847,-6.70659 -14.99847,-15.00387 z m 0,0 h 160 v 30 h -160 z"
         style="fill:#1bb91f;fill-rule:evenodd;stroke:none;stroke-width:1" />
      <path
         d="M 355.03965,164.65436 V 94.654356 h -6 V 240.65436 h 6 v -70 h 77 v -6 z m -83,-54.99351 c 0,-8.28786 6.72197,-15.006494 14.99847,-15.006494 h 130.00306 c 8.28343,0 14.99847,6.724924 14.99847,15.006494 v 130.99351 h -160 z"
         id="path838"
         inkscape:connector-curvature="0"
         style="fill:#000000;fill-rule:evenodd;stroke:none;stroke-width:1" />
    </g>
  </g>
</svg>
